<svg width="74" height="74" viewBox="0 0 74 74" fill="none" xmlns="http://www.w3.org/2000/svg">
<g filter="url(#filter0_d_1_956)">
<mask id="mask0_1_956" style="mask-type:luminance" maskUnits="userSpaceOnUse" x="25" y="21" width="24" height="24">
<path d="M25 21H49V45H25V21Z" fill="white"/>
</mask>
<g mask="url(#mask0_1_956)">
<path fill-rule="evenodd" clip-rule="evenodd" d="M49 33C49 39.627 43.627 45 37 45C30.373 45 25 39.627 25 33C25 26.373 30.373 21 37 21C43.627 21 49 26.373 49 33ZM37.43 29.859C36.2633 30.3443 33.9307 31.349 30.432 32.873C29.864 33.099 29.5663 33.32 29.539 33.536C29.493 33.902 29.951 34.046 30.573 34.241L30.836 34.325C31.449 34.524 32.273 34.757 32.701 34.766C33.0897 34.774 33.5237 34.614 34.003 34.286C37.271 32.0793 38.958 30.964 39.064 30.94C39.139 30.923 39.243 30.901 39.313 30.964C39.383 31.026 39.376 31.144 39.369 31.176C39.323 31.369 37.529 33.038 36.599 33.902C36.309 34.171 36.104 34.362 36.062 34.406C35.9667 34.5027 35.8727 34.5957 35.78 34.685C35.21 35.233 34.784 35.645 35.804 36.317C36.294 36.64 36.686 36.907 37.077 37.173C37.504 37.464 37.93 37.754 38.482 38.116C38.622 38.2093 38.757 38.3027 38.887 38.396C39.384 38.751 39.831 39.069 40.383 39.019C40.703 38.989 41.035 38.688 41.203 37.789C41.6 35.663 42.382 31.059 42.563 29.161C42.575 29.0034 42.5683 28.845 42.543 28.689C42.529 28.5628 42.4675 28.4466 42.371 28.364C42.228 28.247 42.006 28.222 41.906 28.224C41.455 28.232 40.763 28.473 37.43 29.859Z" fill="#6E4ACF"/>
<path fill-rule="evenodd" clip-rule="evenodd" d="M49 33C49 39.627 43.627 45 37 45C30.373 45 25 39.627 25 33C25 26.373 30.373 21 37 21C43.627 21 49 26.373 49 33ZM37.43 29.859C36.2633 30.3443 33.9307 31.349 30.432 32.873C29.864 33.099 29.5663 33.32 29.539 33.536C29.493 33.902 29.951 34.046 30.573 34.241L30.836 34.325C31.449 34.524 32.273 34.757 32.701 34.766C33.0897 34.774 33.5237 34.614 34.003 34.286C37.271 32.0793 38.958 30.964 39.064 30.94C39.139 30.923 39.243 30.901 39.313 30.964C39.383 31.026 39.376 31.144 39.369 31.176C39.323 31.369 37.529 33.038 36.599 33.902C36.309 34.171 36.104 34.362 36.062 34.406C35.9667 34.5027 35.8727 34.5957 35.78 34.685C35.21 35.233 34.784 35.645 35.804 36.317C36.294 36.64 36.686 36.907 37.077 37.173C37.504 37.464 37.93 37.754 38.482 38.116C38.622 38.2093 38.757 38.3027 38.887 38.396C39.384 38.751 39.831 39.069 40.383 39.019C40.703 38.989 41.035 38.688 41.203 37.789C41.6 35.663 42.382 31.059 42.563 29.161C42.575 29.0034 42.5683 28.845 42.543 28.689C42.529 28.5628 42.4675 28.4466 42.371 28.364C42.228 28.247 42.006 28.222 41.906 28.224C41.455 28.232 40.763 28.473 37.43 29.859Z" fill="#6E4ACF"/>
</g>
</g>
<defs>
<filter id="filter0_d_1_956" x="0" y="0" width="74" height="74" filterUnits="userSpaceOnUse" color-interpolation-filters="sRGB">
<feFlood flood-opacity="0" result="BackgroundImageFix"/>
<feColorMatrix in="SourceAlpha" type="matrix" values="0 0 0 0 0 0 0 0 0 0 0 0 0 0 0 0 0 0 127 0" result="hardAlpha"/>
<feOffset dy="4"/>
<feGaussianBlur stdDeviation="12.5"/>
<feComposite in2="hardAlpha" operator="out"/>
<feColorMatrix type="matrix" values="0 0 0 0 0.815149 0 0 0 0 0.6375 0 0 0 0 1 0 0 0 0.2 0"/>
<feBlend mode="normal" in2="BackgroundImageFix" result="effect1_dropShadow_1_956"/>
<feBlend mode="normal" in="SourceGraphic" in2="effect1_dropShadow_1_956" result="shape"/>
</filter>
</defs>
</svg>
