<svg width="74" height="70" viewBox="0 0 74 70" fill="none" xmlns="http://www.w3.org/2000/svg">
<g filter="url(#filter0_d_1_957)">
<path d="M45.3175 23.3606C43.7614 22.6459 42.1192 22.1362 40.432 21.8441C40.4167 21.8415 40.401 21.8437 40.3871 21.8504C40.3731 21.8571 40.3615 21.868 40.354 21.8816C40.1425 22.2566 39.9085 22.7471 39.745 23.1311C37.9264 22.8553 36.0766 22.8553 34.258 23.1311C34.0764 22.7029 33.87 22.2857 33.64 21.8816C33.6325 21.868 33.6209 21.8571 33.607 21.8504C33.593 21.8437 33.5773 21.8415 33.562 21.8441C31.8745 22.1351 30.232 22.6451 28.6765 23.3606C28.6631 23.3655 28.652 23.3751 28.645 23.3876C25.534 28.0361 24.6805 32.5706 25.099 37.0481C25.102 37.0701 25.1125 37.0886 25.1305 37.1036C26.9425 38.4449 28.9687 39.4694 31.123 40.1336C31.1382 40.1384 31.1546 40.1382 31.1697 40.1331C31.1848 40.1279 31.1979 40.1181 31.207 40.1051C31.67 39.4751 32.079 38.8106 32.434 38.1116C32.4414 38.0972 32.4439 38.0808 32.4412 38.0648C32.4385 38.0489 32.4307 38.0342 32.419 38.0231L32.392 38.0066C31.746 37.7575 31.1202 37.4591 30.52 37.1141C30.5033 37.1046 30.4908 37.089 30.4852 37.0706C30.4796 37.0521 30.4813 37.0323 30.49 37.0151L30.5125 36.9866C30.6395 36.8916 30.7635 36.7941 30.8845 36.6941C30.8951 36.6855 30.9078 36.6801 30.9213 36.6782C30.9348 36.6764 30.9485 36.6782 30.961 36.6836C34.8895 38.4776 39.142 38.4776 43.0225 36.6836C43.0354 36.6776 43.0497 36.6754 43.0638 36.6773C43.0779 36.6791 43.0911 36.685 43.102 36.6941C43.223 36.7941 43.347 36.8916 43.474 36.9866C43.4846 36.9938 43.4931 37.0036 43.4988 37.015C43.5045 37.0265 43.5072 37.0392 43.5066 37.052C43.506 37.0648 43.5021 37.0772 43.4954 37.088C43.4886 37.0989 43.4792 37.1079 43.468 37.1141C42.8704 37.4646 42.2436 37.7627 41.5945 38.0051C41.5842 38.0088 41.5748 38.0148 41.567 38.0226C41.5592 38.0303 41.5533 38.0397 41.5495 38.0501C41.5459 38.06 41.5444 38.0707 41.5451 38.0813C41.5459 38.0919 41.5489 38.1022 41.554 38.1116C41.914 38.8091 42.3265 39.4751 42.7795 40.1051C42.7887 40.1181 42.8017 40.1279 42.8168 40.1331C42.8319 40.1382 42.8483 40.1384 42.8635 40.1336C45.0221 39.4731 47.0519 38.4483 48.865 37.1036C48.874 37.0972 48.8815 37.0889 48.887 37.0793C48.8924 37.0697 48.8957 37.0591 48.8965 37.0481C49.3975 31.8716 48.058 27.3746 45.3475 23.3891C45.3452 23.3823 45.3412 23.3761 45.336 23.3712C45.3308 23.3662 45.3244 23.3626 45.3175 23.3606ZM33.0205 34.3211C31.837 34.3211 30.8635 33.2351 30.8635 31.9031C30.8635 30.5711 31.819 29.4836 33.0205 29.4836C34.231 29.4836 35.1955 30.5786 35.1775 31.9031C35.1775 33.2351 34.222 34.3211 33.0205 34.3211ZM40.9945 34.3211C39.8125 34.3211 38.8375 33.2351 38.8375 31.9031C38.8375 30.5711 39.793 29.4836 40.9945 29.4836C42.205 29.4836 43.171 30.5786 43.1515 31.9031C43.1515 33.2351 42.205 34.3211 40.9945 34.3211Z" fill="#6E4ACF"/>
<path d="M45.3175 23.3606C43.7614 22.6459 42.1192 22.1362 40.432 21.8441C40.4167 21.8415 40.401 21.8437 40.3871 21.8504C40.3731 21.8571 40.3615 21.868 40.354 21.8816C40.1425 22.2566 39.9085 22.7471 39.745 23.1311C37.9264 22.8553 36.0766 22.8553 34.258 23.1311C34.0764 22.7029 33.87 22.2857 33.64 21.8816C33.6325 21.868 33.6209 21.8571 33.607 21.8504C33.593 21.8437 33.5773 21.8415 33.562 21.8441C31.8745 22.1351 30.232 22.6451 28.6765 23.3606C28.6631 23.3655 28.652 23.3751 28.645 23.3876C25.534 28.0361 24.6805 32.5706 25.099 37.0481C25.102 37.0701 25.1125 37.0886 25.1305 37.1036C26.9425 38.4449 28.9687 39.4694 31.123 40.1336C31.1382 40.1384 31.1546 40.1382 31.1697 40.1331C31.1848 40.1279 31.1979 40.1181 31.207 40.1051C31.67 39.4751 32.079 38.8106 32.434 38.1116C32.4414 38.0972 32.4439 38.0808 32.4412 38.0648C32.4385 38.0489 32.4307 38.0342 32.419 38.0231L32.392 38.0066C31.746 37.7575 31.1202 37.4591 30.52 37.1141C30.5033 37.1046 30.4908 37.089 30.4852 37.0706C30.4796 37.0521 30.4813 37.0323 30.49 37.0151L30.5125 36.9866C30.6395 36.8916 30.7635 36.7941 30.8845 36.6941C30.8951 36.6855 30.9078 36.6801 30.9213 36.6782C30.9348 36.6764 30.9485 36.6782 30.961 36.6836C34.8895 38.4776 39.142 38.4776 43.0225 36.6836C43.0354 36.6776 43.0497 36.6754 43.0638 36.6773C43.0779 36.6791 43.0911 36.685 43.102 36.6941C43.223 36.7941 43.347 36.8916 43.474 36.9866C43.4846 36.9938 43.4931 37.0036 43.4988 37.015C43.5045 37.0265 43.5072 37.0392 43.5066 37.052C43.506 37.0648 43.5021 37.0772 43.4954 37.088C43.4886 37.0989 43.4792 37.1079 43.468 37.1141C42.8704 37.4646 42.2436 37.7627 41.5945 38.0051C41.5842 38.0088 41.5748 38.0148 41.567 38.0226C41.5592 38.0303 41.5533 38.0397 41.5495 38.0501C41.5459 38.06 41.5444 38.0707 41.5451 38.0813C41.5459 38.0919 41.5489 38.1022 41.554 38.1116C41.914 38.8091 42.3265 39.4751 42.7795 40.1051C42.7887 40.1181 42.8017 40.1279 42.8168 40.1331C42.8319 40.1382 42.8483 40.1384 42.8635 40.1336C45.0221 39.4731 47.0519 38.4483 48.865 37.1036C48.874 37.0972 48.8815 37.0889 48.887 37.0793C48.8924 37.0697 48.8957 37.0591 48.8965 37.0481C49.3975 31.8716 48.058 27.3746 45.3475 23.3891C45.3452 23.3823 45.3412 23.3761 45.336 23.3712C45.3308 23.3662 45.3244 23.3626 45.3175 23.3606ZM33.0205 34.3211C31.837 34.3211 30.8635 33.2351 30.8635 31.9031C30.8635 30.5711 31.819 29.4836 33.0205 29.4836C34.231 29.4836 35.1955 30.5786 35.1775 31.9031C35.1775 33.2351 34.222 34.3211 33.0205 34.3211ZM40.9945 34.3211C39.8125 34.3211 38.8375 33.2351 38.8375 31.9031C38.8375 30.5711 39.793 29.4836 40.9945 29.4836C42.205 29.4836 43.171 30.5786 43.1515 31.9031C43.1515 33.2351 42.205 34.3211 40.9945 34.3211Z" fill="#6E4ACF"/>
</g>
<defs>
<filter id="filter0_d_1_957" x="-0.000244141" y="-2" width="74.0002" height="74" filterUnits="userSpaceOnUse" color-interpolation-filters="sRGB">
<feFlood flood-opacity="0" result="BackgroundImageFix"/>
<feColorMatrix in="SourceAlpha" type="matrix" values="0 0 0 0 0 0 0 0 0 0 0 0 0 0 0 0 0 0 127 0" result="hardAlpha"/>
<feOffset dy="4"/>
<feGaussianBlur stdDeviation="12.5"/>
<feComposite in2="hardAlpha" operator="out"/>
<feColorMatrix type="matrix" values="0 0 0 0 0.815149 0 0 0 0 0.6375 0 0 0 0 1 0 0 0 0.2 0"/>
<feBlend mode="normal" in2="BackgroundImageFix" result="effect1_dropShadow_1_957"/>
<feBlend mode="normal" in="SourceGraphic" in2="effect1_dropShadow_1_957" result="shape"/>
</filter>
</defs>
</svg>
