<svg width="24" height="25" viewBox="0 0 24 25" fill="none" xmlns="http://www.w3.org/2000/svg">
<path d="M12 20.6601C7.48803 20.6601 3.84003 17.0121 3.84003 12.5001C3.84003 7.98809 7.48803 4.34009 12 4.34009C16.512 4.34009 20.16 7.98809 20.16 12.5001C20.16 17.0121 16.512 20.6601 12 20.6601ZM12 5.30009C8.01603 5.30009 4.80003 8.51609 4.80003 12.5001C4.80003 16.4841 8.01603 19.7001 12 19.7001C15.984 19.7001 19.2 16.4841 19.2 12.5001C19.2 8.51609 15.984 5.30009 12 5.30009Z" fill="black"/>
<path d="M7.67999 12.02H16.32V12.98H7.67999V12.02Z" fill="black"/>
<path d="M11.52 8.17993H12.48V16.8199H11.52V8.17993Z" fill="black"/>
</svg>
