<svg width="60" height="60" viewBox="0 0 60 60" fill="none" xmlns="http://www.w3.org/2000/svg">
<path d="M23.75 38.9599V21.0399C23.7504 20.8157 23.811 20.5957 23.9257 20.403C24.0403 20.2103 24.2046 20.052 24.4014 19.9446C24.5983 19.8373 24.8204 19.7848 25.0444 19.7928C25.2685 19.8008 25.4863 19.8688 25.675 19.9899L39.615 28.9474C39.7915 29.0605 39.9367 29.2162 40.0373 29.4001C40.1379 29.584 40.1907 29.7903 40.1907 29.9999C40.1907 30.2095 40.1379 30.4158 40.0373 30.5997C39.9367 30.7837 39.7915 30.9393 39.615 31.0524L25.675 40.0124C25.4863 40.1335 25.2685 40.2016 25.0444 40.2095C24.8204 40.2175 24.5983 40.1651 24.4014 40.0577C24.2046 39.9503 24.0403 39.792 23.9257 39.5993C23.811 39.4066 23.7504 39.1866 23.75 38.9624V38.9599Z" fill="white"/>
<path d="M2.5 30C2.5 14.8125 14.8125 2.5 30 2.5C45.1875 2.5 57.5 14.8125 57.5 30C57.5 45.1875 45.1875 57.5 30 57.5C14.8125 57.5 2.5 45.1875 2.5 30ZM30 6.25C23.7011 6.25 17.6602 8.75222 13.2062 13.2062C8.75222 17.6602 6.25 23.7011 6.25 30C6.25 36.2989 8.75222 42.3398 13.2062 46.7938C17.6602 51.2478 23.7011 53.75 30 53.75C36.2989 53.75 42.3398 51.2478 46.7938 46.7938C51.2478 42.3398 53.75 36.2989 53.75 30C53.75 23.7011 51.2478 17.6602 46.7938 13.2062C42.3398 8.75222 36.2989 6.25 30 6.25Z" fill="white"/>
</svg>
