<svg width="68" height="68" viewBox="0 0 68 68" fill="none" xmlns="http://www.w3.org/2000/svg">
<g filter="url(#filter0_d_1_958)">
<path d="M42.1562 38.6109C42.0917 38.7286 41.9967 38.8267 41.8813 38.8951C41.7659 38.9636 41.6342 38.9998 41.5 39H37C36.8738 39 36.7496 38.9681 36.639 38.9073C36.5284 38.8465 36.4349 38.7587 36.3672 38.6522L32.5712 32.6869L27.055 38.7544C26.9205 38.8988 26.7345 38.9845 26.5374 38.9927C26.3402 39.0009 26.1477 38.9311 26.0016 38.7984C25.8556 38.6657 25.7677 38.4807 25.7571 38.2836C25.7465 38.0866 25.814 37.8933 25.945 37.7456L31.7359 31.3706L25.8672 22.1531C25.7949 22.0397 25.7544 21.909 25.75 21.7746C25.7456 21.6402 25.7774 21.5071 25.8421 21.3892C25.9068 21.2713 26.002 21.173 26.1178 21.1045C26.2335 21.036 26.3655 20.9999 26.5 21H31C31.1262 21 31.2504 21.0319 31.361 21.0927C31.4716 21.1535 31.5651 21.2413 31.6328 21.3478L35.4287 27.3131L40.945 21.2456C41.0795 21.1012 41.2655 21.0155 41.4626 21.0073C41.6598 20.9991 41.8523 21.0689 41.9984 21.2016C42.1444 21.3343 42.2323 21.5193 42.2429 21.7164C42.2535 21.9134 42.186 22.1067 42.055 22.2544L36.2641 28.6247L42.1328 37.8478C42.2047 37.9613 42.2448 38.0919 42.2489 38.2262C42.253 38.3604 42.221 38.4933 42.1562 38.6109Z" fill="#6E4ACF"/>
<path d="M42.1562 38.6109C42.0917 38.7286 41.9967 38.8267 41.8813 38.8951C41.7659 38.9636 41.6342 38.9998 41.5 39H37C36.8738 39 36.7496 38.9681 36.639 38.9073C36.5284 38.8465 36.4349 38.7587 36.3672 38.6522L32.5712 32.6869L27.055 38.7544C26.9205 38.8988 26.7345 38.9845 26.5374 38.9927C26.3402 39.0009 26.1477 38.9311 26.0016 38.7984C25.8556 38.6657 25.7677 38.4807 25.7571 38.2836C25.7465 38.0866 25.814 37.8933 25.945 37.7456L31.7359 31.3706L25.8672 22.1531C25.7949 22.0397 25.7544 21.909 25.75 21.7746C25.7456 21.6402 25.7774 21.5071 25.8421 21.3892C25.9068 21.2713 26.002 21.173 26.1178 21.1045C26.2335 21.036 26.3655 20.9999 26.5 21H31C31.1262 21 31.2504 21.0319 31.361 21.0927C31.4716 21.1535 31.5651 21.2413 31.6328 21.3478L35.4287 27.3131L40.945 21.2456C41.0795 21.1012 41.2655 21.0155 41.4626 21.0073C41.6598 20.9991 41.8523 21.0689 41.9984 21.2016C42.1444 21.3343 42.2323 21.5193 42.2429 21.7164C42.2535 21.9134 42.186 22.1067 42.055 22.2544L36.2641 28.6247L42.1328 37.8478C42.2047 37.9613 42.2448 38.0919 42.2489 38.2262C42.253 38.3604 42.221 38.4933 42.1562 38.6109Z" fill="#6E4ACF"/>
</g>
<defs>
<filter id="filter0_d_1_958" x="-3" y="-3" width="74" height="74" filterUnits="userSpaceOnUse" color-interpolation-filters="sRGB">
<feFlood flood-opacity="0" result="BackgroundImageFix"/>
<feColorMatrix in="SourceAlpha" type="matrix" values="0 0 0 0 0 0 0 0 0 0 0 0 0 0 0 0 0 0 127 0" result="hardAlpha"/>
<feOffset dy="4"/>
<feGaussianBlur stdDeviation="12.5"/>
<feComposite in2="hardAlpha" operator="out"/>
<feColorMatrix type="matrix" values="0 0 0 0 0.815149 0 0 0 0 0.6375 0 0 0 0 1 0 0 0 0.2 0"/>
<feBlend mode="normal" in2="BackgroundImageFix" result="effect1_dropShadow_1_958"/>
<feBlend mode="normal" in="SourceGraphic" in2="effect1_dropShadow_1_958" result="shape"/>
</filter>
</defs>
</svg>
